# xmcd
#
# Track frame offsets: 
#        164
#        20165
#        38412
#        55306
#        77936
#        93189
#        115659
#        139537
#        157815
#        180250
#
# Disc length: 2626 seconds
#
# Revision: 1
# Processed by: cddbd v1.5.2PL0 Copyright (c) Steve Scherf et al.
# Submitted via: ExactAudioCopy v1.0b6
#
DISCID=6c0a400a
DTITLE=John Denver - It's about time
DYEAR=1983
DGENRE=Folk/Rock
TTITLE0=Hold on tightly
TTITLE1=Thought of you
TTITLE2=Somethin' about
TTITLE3=On the wings of a dream
TTITLE4=Flight (The higher we fly)
TTITLE5=Falling out of love
TTITLE6=I remember romance
TTITLE7=Wild Montana skies
TTITLE8=World game
TTITLE9=It's about time
EXTD=
EXTT0=
EXTT1=
EXTT2=
EXTT3=
EXTT4=
EXTT5=
EXTT6=
EXTT7=
EXTT8=
EXTT9=
PLAYORDER=
